HIERARCHY
ROOT pelvis
{
  OFFSET 0 100 0
  CHANNELS 6 Xposition Yposition Zposition Zrotation Xrotation Yrotation
  JOINT pelvis_right_femur
  {
    OFFSET -10.78128 -3.44521 -0.5502486
    CHANNELS 3 Zrotation Xrotation Yrotation
    JOINT right_femur_tibia
    {
      OFFSET -0.8047443 -44.0398 -0.1307829
      CHANNELS 3 Zrotation Xrotation Yrotation
      JOINT right_tibia_foot
      {
        OFFSET 3.006224 -47.83518 -5
        CHANNELS 3 Zrotation Xrotation Yrotation
        End Site
        {
          OFFSET 0 -5 15
        }
      }
    }
  }
  JOINT pelvis_left_femur
  {
    OFFSET 10.78128 -3.44521 -0.5502486
    CHANNELS 3 Zrotation Xrotation Yrotation
    JOINT left_femur_tibia
    {
      OFFSET 0.8047443 -44.0398 -0.1307829
      CHANNELS 3 Zrotation Xrotation Yrotation
      JOINT left_tibia_foot
      {
        OFFSET -4.370144 -48.10324 -4.275266
        CHANNELS 3 Zrotation Xrotation Yrotation
        End Site
        {
          OFFSET 0 -5 15
        }
      }
    }
  }
  JOINT pelvis_spine1
  {
    OFFSET 0 6.468898 -3.129235
    CHANNELS 3 Zrotation Xrotation Yrotation
    JOINT spine1
    {
      OFFSET 0 23.15396 4.99043
      CHANNELS 3 Zrotation Xrotation Yrotation
      JOINT spine2
      {
        OFFSET 0 20.79997 -5.064912
        CHANNELS 3 Zrotation Xrotation Yrotation
        JOINT neck
        {
          OFFSET 0 14.38658 9.616178
          CHANNELS 3 Zrotation Xrotation Yrotation
          End Site
          {
            OFFSET 0 20 0
          }
        }
      }
      JOINT right_manubrium
      {
        OFFSET -5.722621 16.35077 3.967754
        CHANNELS 3 Zrotation Xrotation Yrotation
        JOINT right_clavicle
        {
          OFFSET -13.16364 1.694482 -4.693211
          CHANNELS 3 Zrotation Xrotation Yrotation
          JOINT right_humerus
          {
            OFFSET -28.5034 -0.3100689 -2.792744
            CHANNELS 3 Zrotation Xrotation Yrotation
            JOINT right_radius
            {
              OFFSET -25.15693 0.02248979 -1.271978
              CHANNELS 3 Zrotation Xrotation Yrotation
              End Site
              {
                OFFSET -15 0 0
              }
            }
          }
        }
      }
      JOINT left_manubrium
      {
        OFFSET 5.722621 16.35077 3.967754
        CHANNELS 3 Zrotation Xrotation Yrotation
        JOINT left_clavicle
        {
          OFFSET 13.16364 1.694482 -4.693211
          CHANNELS 3 Zrotation Xrotation Yrotation
          JOINT left_humerus
          {
            OFFSET 29.39168 -1.063119 -2.237045
            CHANNELS 3 Zrotation Xrotation Yrotation
            JOINT left_radius
            {
              OFFSET 24.59957 -0.9528479 0.9047498
              CHANNELS 3 Zrotation Xrotation Yrotation
              End Site
              {
                OFFSET 15 -0 -0
              }
            }
          }
        }
      }
    }
  }
}
MOTION
Frames: 15
Frame Time: 0.0416666666667
0 103.5113 0 2.685243 -1.400998 -0.01327837 1.199073 -11.87246 9.963403 -0 36.46952 -0 -6.314966 -15.45452 -3.031306 -8.48637 9.938979 -23.569 -0 5.017284 -0 15.35727 -12.76038 30.67364 -5.113511 -5.1687 5.274222 2.378074 10.95005 -7.588894 1.310068 22.4614 6.278297 2.777131 -23.87088 9.138208 6.715328 -20.21895 11.75084 86.00653 37.63483 -18.94008 -0 0 14.86477 -7.989974 8.095876 5.275929 5.733925 -19.70196 -1.922616 -91.51914 21.21395 19.23811 0 0 -14.75282 14.37505 14.94925 -2.783501
0.2630839 103.0798 1.519292 2.074482 -1.110694 -0.08819321 2.05422 -13.73491 9.83633 -0 37.55392 -0 -6.464759 -14.57968 -2.952065 -8.013513 9.822216 -23.07636 -0 5.14705 -0 14.55539 -13.43998 29.96666 -4.658248 -4.794907 5.113433 2.405352 10.85817 -7.633554 1.319502 22.20364 6.374074 2.872172 -24.17567 9.186081 6.727581 -20.21045 11.80727 85.83173 37.28764 -18.68926 -0 0 15.17508 -8.036013 8.202095 5.174051 5.897039 -19.85712 -1.75805 -91.71574 21.09767 19.59046 0 0 -14.53917 14.42082 15.08912 -2.759979
0.3825443 102.3932 2.90174 -0.7901477 1.738897 -0.5611388 8.133707 -24.64247 12.84403 -0 29.7447 -0 -5.018007 -19.67557 -3.02447 -5.721498 12.82535 -24.5957 -0 5.530693 -0 10.38647 -18.29978 28.67016 -2.158614 -4.27731 5.265772 3.427726 9.245068 -7.995251 2.095259 20.94716 6.07682 2.75155 -27.31592 10.26199 5.898596 -20.91226 11.53057 85.11183 33.2738 -19.59733 -0 0 18.58786 -2.732976 6.232043 1.945944 6.962261 -19.82459 -0.207624 -95.88332 25.28081 23.80358 0 0 -15.77264 12.01448 17.58971 0.6379725
0.4979968 101.6722 4.867125 -1.808634 3.112627 -0.873173 9.850875 -29.16623 12.20665 -0 26.21764 -0 -5.93289 -16.09827 -2.455038 -4.949469 12.75718 -22.83316 -0 7.930987 -0 7.541295 -20.50459 25.73722 -1.662929 -3.401655 4.867177 3.780914 8.976028 -8.355793 2.050422 20.08961 6.373699 3.381693 -28.13153 10.02631 6.0448 -20.31767 11.57629 84.83726 33.0864 -19.8817 -0 0 18.27583 -3.232906 6.452463 2.106131 7.464214 -20.5153 0.1606777 -96.04411 25.28328 23.85486 0 0 -16.15993 11.03882 17.53049 1.59514
0.6500787 100.778 7.682912 -2.140877 3.937821 -0.9468077 9.621267 -32.76355 9.70852 -0 21.90865 -0 -7.080202 -10.495 -1.870461 -4.621959 12.29452 -19.75427 -0 10.14553 -0 4.393059 -22.40332 21.49764 -1.773048 -2.213029 4.275643 3.899208 8.905451 -8.760387 1.785811 19.36753 6.832229 4.114852 -27.91048 9.399524 6.150283 -19.13116 11.53642 84.93866 33.64828 -20.24167 -0 0 16.7952 -5.740877 7.563577 3.308242 7.94137 -21.46594 -0.005149041 -94.4139 24.29675 21.81938 0 0 -17.16876 10.05637 16.47087 2.23698
0.8284034 99.48075 11.31311 -1.628385 3.629322 -0.7506031 7.32806 -34.33388 6.077695 -0 17.9757 -0 -7.394115 -5.662734 -1.852212 -4.781455 12.02202 -16.40182 -0 10.84443 -0 1.828528 -23.46204 17.3738 -2.369813 -1.082138 3.737379 3.663934 8.922254 -8.992313 1.491398 19.12304 7.172538 4.507436 -26.41342 8.661485 5.888391 -17.69708 11.30014 85.539 34.09864 -20.59194 -0 0 14.79671 -9.352443 9.11276 5.010627 8.292293 -22.27208 -0.7230766 -91.4187 22.64387 18.0384 0 0 -18.85028 9.364321 14.69529 2.380758
0.9937208 97.63513 15.70862 -0.5394407 2.484739 -0.2339569 4.147151 -34.4574 2.446445 -0 13.50298 -0 -6.450242 -2.670835 -2.704224 -5.220887 12.57843 -13.32316 -0 10.40766 -0 -0.3914172 -24.07431 13.80721 -3.194869 -0.196195 3.349412 3.222559 8.821687 -9.031981 1.362129 19.28259 7.191916 4.46417 -24.06836 7.985897 5.150247 -16.13831 10.84695 86.59257 33.7301 -21.13881 -0 0 12.67381 -12.89251 10.58905 6.579344 8.577391 -22.81997 -1.706329 -87.90227 21.04129 13.25747 0 0 -21.38007 8.575518 12.65137 2.619533
1.106745 95.26372 20.82823 0.7742547 0.8674752 0.5873788 1.309533 -33.54845 -0.09306844 -0 9.131009 -0 -4.482393 -1.738079 -4.386391 -5.730171 14.19869 -10.91553 -0 9.589993 -0 -2.210239 -24.27638 11.32232 -3.997469 0.2785496 3.083319 2.723065 8.572481 -8.906805 1.482172 19.73881 6.814906 4.013942 -21.40222 7.492151 4.112011 -14.59096 10.28939 87.92393 32.49212 -21.87378 -0 0 10.62576 -15.46631 11.74826 7.536547 8.77434 -23.0639 -2.646214 -84.51494 19.90915 8.249289 0 0 -24.39324 7.68239 10.79972 3.101432
1.138046 92.59826 26.65247 1.840824 -0.7213931 1.586168 -0.2030344 -32.22712 -0.9585285 -0 6.009119 -0 -2.292056 -2.266451 -6.437762 -6.024986 16.67648 -9.348748 -0 9.495778 -0 -3.708593 -23.98434 10.04339 -4.48358 0.3206525 2.818206 2.316555 8.216803 -8.69857 1.815181 20.29434 6.144214 3.330509 -19.05645 7.224503 3.11206 -13.18162 9.784037 89.24918 30.8424 -22.66521 -0 0 8.785166 -16.60095 12.54105 7.671469 8.829779 -23.01597 -3.264686 -81.79605 19.54114 3.902295 0 0 -27.1653 6.737544 9.535612 3.866999
1.072279 90.04817 33.09512 2.163331 -1.801007 2.530682 0.1010608 -30.95423 -0.1923986 -0 5.469474 -0 -0.9038473 -3.307914 -8.140821 -5.817796 19.24754 -8.720597 -0 11.24477 -0 -5.040739 -22.97326 9.726073 -4.351781 0.0636392 2.448266 2.108251 7.838481 -8.48599 2.200201 20.73877 5.466169 2.694094 -17.67631 7.168139 2.523849 -12.10164 9.474096 90.20008 29.52384 -23.25689 -0 0 7.408036 -16.28951 12.94774 7.083679 8.660334 -22.68005 -3.410935 -80.29732 20.09238 1.312694 0 0 -28.66225 5.837355 9.137359 4.846365
0.9182834 88.05309 39.93217 1.517756 -2.151776 3.21333 1.977781 -29.72358 1.57226 -0 8.029771 -0 -1.000044 -4.148887 -8.880734 -5.022247 20.80174 -8.991851 -0 15.58466 -0 -6.384952 -21.02404 9.820873 -3.475803 -0.244467 1.990659 2.108024 7.519826 -8.3013 2.428449 20.97636 5.113826 2.369477 -17.58462 7.262134 2.543309 -11.52611 9.41867 90.50176 29.12822 -23.40316 -0 0 6.761758 -15.01263 12.95808 6.167652 8.186216 -22.06366 -3.166563 -80.40815 21.50003 1.296223 0 0 -28.11092 5.010057 9.605498 5.98746
0.7273879 86.89928 46.84752 0.1951912 -1.956499 3.567931 4.486789 -28.11104 3.427518 -0 12.69971 -0 -2.529271 -4.757213 -8.493978 -3.918228 20.43611 -9.855189 -0 22.64735 -0 -7.739392 -18.15275 9.85673 -2.084555 -0.3763297 1.621666 2.236625 7.326724 -8.117469 2.399435 21.09926 5.2148 2.444898 -18.53345 7.425338 3.073588 -11.47739 9.580479 90.14866 29.70803 -23.025 -0 0 6.834079 -13.4768 12.63098 5.39601 7.398387 -21.2534 -2.788129 -82.0581 23.37206 3.723414 0 0 -25.64166 4.243198 10.62275 7.256862
0.5779653 86.63383 53.57298 -1.127524 -1.704628 3.614573 6.51462 -25.61247 4.673266 -0 17.44392 -0 -4.764073 -5.523892 -7.400217 -2.997135 17.92522 -10.75379 -0 31.9659 -0 -8.85854 -14.7276 9.778922 -0.714017 -0.2367538 1.579239 2.382705 7.319647 -7.874707 2.201078 21.30732 5.567315 2.7798 -19.79721 7.54548 3.823373 -11.77752 9.873498 89.39706 30.78736 -22.24774 -0 0 7.226718 -12.2519 12.12127 5.056676 6.405769 -20.44637 -2.511075 -84.52685 25.10362 7.357876 0 0 -22.31924 3.57175 11.69926 8.550067
0.5170544 87.10411 59.97609 -1.827889 -1.876165 3.366346 7.43317 -21.89921 5.124959 -0 20.46348 -0 -6.792791 -6.642922 -6.255816 -2.565968 13.59375 -11.17067 -0 42.46169 -0 -9.475574 -11.35284 9.870167 0.1071664 0.1429641 2.018228 2.450337 7.541456 -7.507936 2.011606 21.7335 5.816029 3.141058 -20.61463 7.477119 4.513517 -12.20443 10.22245 88.50918 31.75926 -21.20581 -0 0 7.536772 -11.60785 11.58477 5.181859 5.411612 -19.84 -2.41261 -86.78589 26.21382 10.64648 0 0 -19.36083 3.086606 12.40911 9.647309
0.5274732 88.03354 66.03443 -1.676054 -2.661851 2.867809 7.281491 -16.87606 4.997968 -0 21.04231 -0 -8.020155 -7.952365 -5.435857 -2.555909 7.834491 -10.86654 -0 52.33648 -0 -9.52275 -8.609796 10.42487 0.1597638 0.6758114 2.93043 2.371067 7.974392 -6.963906 1.944103 22.34477 5.731147 3.376276 -20.60152 7.116639 4.979303 -12.69876 10.58858 87.51062 32.23516 -19.81245 -0 0 7.808095 -11.60436 11.08327 5.691555 4.627576 -19.48416 -2.43686 -88.20738 26.51142 12.76476 0 0 -17.36097 2.828007 12.5359 10.33564
